# xmcd
#
# Track frame offsets:
# 150
# 18419
# 38619
# 52516
# 67188
# 77852
# 93486
# 115191
# 134525
# 151713
# 171631
# 190948
# 208808
# 222377
#
# Disc length: 3252 seconds
#
#
# Revision: 0
# Processed by: cddbd v1.5.2PL0 Copyright (c) Steve Scherf et al.
# Submitted via: FreeRIP 2.951 
#
DISCID=c40cb20e
DTITLE=JORGE ARAGÃO - E AÍ
DYEAR=2006
DGENRE=PAGODE
TTITLE0=JORGE ARAGÃO - SEM DÍVIDA NEM DÍVIDA
TTITLE1=JORGE ARAGÃO - DISCIPLINA
TTITLE2=JORGE ARAGÃO - A SOMBRA DE AMENDOEIRA
TTITLE3=JORGE ARAGÃO - ADEPTO DO SAMBA SINCOPADO
TTITLE4=JORGE ARAGÃO - AGITAR GERAL
TTITLE5=JORGE ARAGÃO - E A VIDA MUDOU
TTITLE6=JORGE ARAGÃO - NINGUEM É PERFEITO
TTITLE7=JORGE ARAGÃO - PARTIDO ALTO
TTITLE8=JORGE ARAGÃO - MALACO
TTITLE9=JORGE ARAGÃO - EMOÇÃO SINCERA
TTITLE10=JORGE ARAGÃO - RETRATO DE DESILUSÃO
TTITLE11=JORGE ARAGÃO - A VIDA É RÁPIDA
TTITLE12=JORGE ARAGÃO - NÃO É SEGREDO
TTITLE13=JORGE ARAGÃO - MANÉ JOÃO
EXTD=geovane.barras@hotmail.com  o mundo da musica mp3
EXTT0=
EXTT1=
EXTT2=
EXTT3=
EXTT4=
EXTT5=
EXTT6=
EXTT7=
EXTT8=
EXTT9=
EXTT10=
EXTT11=
EXTT12=
EXTT13=
PLAYORDER=
